<svg xmlns="http://www.w3.org/2000/svg" viewBox="0 0 64 64" role="img" aria-label="Weather icon">
  <defs>
    <linearGradient id="g" x1="0" y1="0" x2="1" y2="1">
      <stop offset="0%" stop-color="#f28d35"/>
      <stop offset="55%" stop-color="#5f44d2"/>
      <stop offset="100%" stop-color="#1c8acf"/>
    </linearGradient>
  </defs>
  <rect x="2" y="2" width="60" height="60" rx="14" fill="url(#g)"/>
  <circle cx="24" cy="26" r="10" fill="#ffe28c"/>
  <path d="M39 41H21c-5 0-9-3.6-9-8.1C12 28 16 24 21 24c1.9 0 3.8.6 5.3 1.5C27.9 21.7 31.5 19 36 19c6.1 0 11 4.7 11 10.5.1 0 .1 0 .2 0 3.7 0 6.8 2.7 6.8 6s-3.1 6-6.8 6H39z" fill="#eef5ff"/>
  <path d="M31 47l2.5-5.4h-3l3.1-6.1-.7 4h2.7L31 47z" fill="#f6c049"/>
</svg>
